<svg xmlns="http://www.w3.org/2000/svg" height="48" viewBox="0 -960 960 960" width="48"><path fill="#ffffff" d="m482-39-4-130-44-1q-145.506-12-245.753-121.462Q88-400.924 88-548q0-155.406 111.223-265.703Q310.445-924 467.508-924q76.926 0 143.883 29.006 66.958 29.005 115.896 79.062 48.938 50.056 77.326 118.995Q833-627.997 833-548.25q0 77.511-27 150.88Q779-324 733-259T622.927-137.256Q558.855-80.512 482-39Zm83-160q81.669-68.186 127.834-162.459Q739-455.732 739-547.581q0-125.852-77.182-204.136Q584.637-830 466.818-830 347-830 264-747.318q-83 82.681-83 201.5Q181-427 263.5-344q82.5 83 201.543 83H565v62Zm-96.552-109Q487-308 501-322.121q14-14.12 14-32.5Q515-373 500.93-387.5 486.86-402 467.552-402 449-402 434.5-387.672q-14.5 14.327-14.5 33Q420-336 434.363-322q14.363 14 34.085 14ZM431-450h68.167q0-24.889 8.916-43.444Q517-512 541-535q27-28 39-50.459 12-22.459 12-51.651 0-51.009-30.5-81.95Q531-750 473-750q-45.577 0-82.038 25.875Q354.5-698.25 337-653l62.574 25q11.426-27 29.935-40T468-681q25 0 40 11.298t15 32.656q0 16.819-11 34.932Q501-584 476-557q-29 28-37 48.469T431-450Zm29-65Z"/></svg>